<svg width="140" height="35" viewBox="0 0 140 35" fill="none" xmlns="http://www.w3.org/2000/svg">
<rect width="140" height="35" fill="white"/>
<path d="M28.6 13.08L23.9 24.52C23.8467 24.68 23.7533 24.8067 23.62 24.9C23.4867 24.9933 23.3467 25.04 23.2 25.04C22.9467 25.04 22.76 24.9733 22.64 24.84C22.52 24.7067 22.46 24.5467 22.46 24.36C22.4467 24.2667 22.46 24.1667 22.5 24.06L27.68 11.46C27.7467 11.2733 27.8467 11.14 27.98 11.06C28.1267 10.9667 28.2867 10.9267 28.46 10.94C28.6333 10.94 28.7867 10.9867 28.92 11.08C29.0667 11.1733 29.1667 11.3 29.22 11.46L34.38 23.94C34.42 24.0467 34.44 24.1533 34.44 24.26C34.44 24.5 34.36 24.6933 34.2 24.84C34.04 24.9733 33.86 25.04 33.66 25.04C33.5 25.04 33.3533 24.9933 33.22 24.9C33.0867 24.8067 32.9867 24.6733 32.92 24.5L28.16 13.06L28.6 13.08ZM24.9 21.26L25.58 19.7H31.52L31.82 21.26H24.9ZM43.5833 14.5C43.8099 14.5 43.9966 14.58 44.1433 14.74C44.3033 14.8867 44.3833 15.0733 44.3833 15.3V24.02C44.3833 25.14 44.1633 26.0667 43.7233 26.8C43.2833 27.5467 42.6899 28.1 41.9433 28.46C41.2099 28.82 40.3766 29 39.4433 29C38.9233 29 38.4233 28.9467 37.9433 28.84C37.4633 28.7333 37.0699 28.5933 36.7633 28.42C36.5099 28.3 36.3299 28.1467 36.2233 27.96C36.1299 27.7867 36.1166 27.6 36.1833 27.4C36.2766 27.16 36.4099 26.9933 36.5833 26.9C36.7699 26.8067 36.9633 26.8067 37.1633 26.9C37.3766 26.9933 37.6833 27.12 38.0833 27.28C38.4966 27.4533 38.9566 27.54 39.4633 27.54C40.1566 27.54 40.7499 27.4067 41.2433 27.14C41.7366 26.8733 42.1166 26.48 42.3833 25.96C42.6499 25.4533 42.7833 24.82 42.7833 24.06V22.64L43.0233 23.14C42.8099 23.5533 42.5233 23.9133 42.1633 24.22C41.8033 24.5267 41.3899 24.7667 40.9233 24.94C40.4566 25.1133 39.9433 25.2 39.3833 25.2C38.6233 25.2 37.9766 25.04 37.4433 24.72C36.9233 24.3867 36.5233 23.9333 36.2433 23.36C35.9766 22.7733 35.8433 22.1 35.8433 21.34V15.3C35.8433 15.0733 35.9166 14.8867 36.0633 14.74C36.2233 14.58 36.4166 14.5 36.6433 14.5C36.8833 14.5 37.0766 14.58 37.2233 14.74C37.3699 14.8867 37.4433 15.0733 37.4433 15.3V20.98C37.4433 21.8867 37.6433 22.5733 38.0433 23.04C38.4433 23.4933 39.0633 23.72 39.9033 23.72C40.4366 23.72 40.9166 23.6 41.3433 23.36C41.7833 23.12 42.1299 22.7933 42.3833 22.38C42.6499 21.9533 42.7833 21.4867 42.7833 20.98V15.3C42.7833 15.0733 42.8566 14.8867 43.0033 14.74C43.1499 14.58 43.3433 14.5 43.5833 14.5ZM56.9695 19.8C56.9695 20.84 56.7429 21.7667 56.2895 22.58C55.8362 23.3933 55.2162 24.0333 54.4295 24.5C53.6562 24.9667 52.7762 25.2 51.7895 25.2C50.8162 25.2 49.9362 24.9667 49.1495 24.5C48.3762 24.0333 47.7562 23.3933 47.2895 22.58C46.8362 21.7667 46.6095 20.84 46.6095 19.8C46.6095 18.76 46.8362 17.8333 47.2895 17.02C47.7562 16.2067 48.3762 15.5667 49.1495 15.1C49.9362 14.6333 50.8162 14.4 51.7895 14.4C52.7762 14.4 53.6562 14.6333 54.4295 15.1C55.2162 15.5667 55.8362 16.2067 56.2895 17.02C56.7429 17.8333 56.9695 18.76 56.9695 19.8ZM55.3695 19.8C55.3695 19.0267 55.2095 18.3467 54.8895 17.76C54.5829 17.1733 54.1562 16.7133 53.6095 16.38C53.0762 16.0467 52.4695 15.88 51.7895 15.88C51.1229 15.88 50.5162 16.0467 49.9695 16.38C49.4229 16.7133 48.9895 17.1733 48.6695 17.76C48.3629 18.3467 48.2095 19.0267 48.2095 19.8C48.2095 20.56 48.3629 21.2333 48.6695 21.82C48.9895 22.4067 49.4229 22.8733 49.9695 23.22C50.5162 23.5533 51.1229 23.72 51.7895 23.72C52.4695 23.72 53.0762 23.5533 53.6095 23.22C54.1562 22.8733 54.5829 22.4067 54.8895 21.82C55.2095 21.2333 55.3695 20.56 55.3695 19.8ZM59.1831 14.48C59.3431 14.48 59.4965 14.5267 59.6431 14.62C59.7898 14.7 59.8965 14.82 59.9631 14.98L63.2831 22.78L62.9631 22.94L66.3431 15C66.4898 14.64 66.7365 14.4667 67.0831 14.48C67.2831 14.48 67.4565 14.5467 67.6031 14.68C67.7498 14.8133 67.8231 14.98 67.8231 15.18C67.8231 15.26 67.8098 15.34 67.7831 15.42C67.7698 15.4867 67.7498 15.5467 67.7231 15.6L63.8631 24.48C63.7165 24.8133 63.4831 24.9867 63.1631 25C62.9898 25.0133 62.8231 24.98 62.6631 24.9C62.5165 24.8067 62.4098 24.6667 62.3431 24.48L58.4831 15.62C58.4565 15.5667 58.4298 15.5067 58.4031 15.44C58.3898 15.3733 58.3831 15.2933 58.3831 15.2C58.3831 15.0267 58.4498 14.8667 58.5831 14.72C58.7298 14.56 58.9298 14.48 59.1831 14.48ZM78.3648 14.56C78.6048 14.56 78.7982 14.64 78.9448 14.8C79.0915 14.9467 79.1648 15.1333 79.1648 15.36V24.18C79.1648 24.4067 79.0848 24.6 78.9248 24.76C78.7782 24.92 78.5915 25 78.3648 25C78.1382 25 77.9448 24.92 77.7848 24.76C77.6382 24.6 77.5648 24.4067 77.5648 24.18V22.28L77.9448 22.24C77.9448 22.5333 77.8448 22.8533 77.6448 23.2C77.4448 23.5467 77.1715 23.8733 76.8248 24.18C76.4782 24.4733 76.0715 24.72 75.6048 24.92C75.1382 25.1067 74.6315 25.2 74.0848 25.2C73.1782 25.2 72.3582 24.9667 71.6248 24.5C70.9048 24.02 70.3382 23.3733 69.9248 22.56C69.5115 21.7467 69.3048 20.82 69.3048 19.78C69.3048 18.7267 69.5115 17.8 69.9248 17C70.3515 16.1867 70.9182 15.5533 71.6248 15.1C72.3448 14.6333 73.1515 14.4 74.0448 14.4C74.6182 14.4 75.1515 14.4933 75.6448 14.68C76.1382 14.8667 76.5648 15.12 76.9248 15.44C77.2982 15.76 77.5848 16.1133 77.7848 16.5C77.9848 16.8867 78.0848 17.2733 78.0848 17.66L77.5648 17.54V15.36C77.5648 15.1333 77.6382 14.9467 77.7848 14.8C77.9448 14.64 78.1382 14.56 78.3648 14.56ZM74.2448 23.72C74.9115 23.72 75.4982 23.5467 76.0048 23.2C76.5248 22.8533 76.9315 22.3867 77.2248 21.8C77.5182 21.2 77.6648 20.5267 77.6648 19.78C77.6648 19.0467 77.5182 18.3867 77.2248 17.8C76.9315 17.2 76.5248 16.7333 76.0048 16.4C75.4982 16.0533 74.9115 15.88 74.2448 15.88C73.5915 15.88 73.0048 16.0467 72.4848 16.38C71.9782 16.7133 71.5782 17.1733 71.2848 17.76C70.9915 18.3467 70.8448 19.02 70.8448 19.78C70.8448 20.5267 70.9915 21.2 71.2848 21.8C71.5782 22.3867 71.9782 22.8533 72.4848 23.2C73.0048 23.5467 73.5915 23.72 74.2448 23.72ZM83.0923 25C82.8523 25 82.659 24.92 82.5123 24.76C82.3657 24.6 82.2923 24.4067 82.2923 24.18V11C82.2923 10.7733 82.3657 10.5867 82.5123 10.44C82.659 10.28 82.8523 10.2 83.0923 10.2C83.319 10.2 83.5057 10.28 83.6523 10.44C83.8123 10.5867 83.8923 10.7733 83.8923 11V24.18C83.8923 24.4067 83.8123 24.6 83.6523 24.76C83.5057 24.92 83.319 25 83.0923 25ZM89.7323 14.6C89.9457 14.6 90.1257 14.6867 90.2723 14.86C90.4323 15.02 90.5123 15.1867 90.5123 15.36C90.5123 15.5867 90.4057 15.7867 90.1923 15.96L83.7123 21.62L83.6523 19.76L89.1723 14.84C89.3323 14.68 89.519 14.6 89.7323 14.6ZM89.9523 24.98C89.7257 24.98 89.5257 24.8933 89.3523 24.72L85.0923 20.18L86.2923 19.08L90.5123 23.6C90.6723 23.7733 90.7523 23.9733 90.7523 24.2C90.7523 24.44 90.659 24.6333 90.4723 24.78C90.2857 24.9133 90.1123 24.98 89.9523 24.98ZM92.3922 23.36C92.2722 23.1867 92.2189 23.0067 92.2322 22.82C92.2455 22.62 92.3589 22.4467 92.5722 22.3C92.7055 22.2067 92.8589 22.1667 93.0322 22.18C93.2189 22.1933 93.3855 22.28 93.5322 22.44C93.9055 22.88 94.3322 23.2333 94.8122 23.5C95.2922 23.7533 95.8789 23.88 96.5722 23.88C96.8922 23.8667 97.2122 23.8133 97.5322 23.72C97.8522 23.6267 98.1189 23.4667 98.3322 23.24C98.5589 23 98.6722 22.6867 98.6722 22.3C98.6722 21.9267 98.5589 21.6333 98.3322 21.42C98.1055 21.1933 97.8122 21.0133 97.4522 20.88C97.0922 20.7333 96.6989 20.6067 96.2722 20.5C95.8322 20.38 95.3989 20.2467 94.9722 20.1C94.5455 19.94 94.1589 19.7467 93.8122 19.52C93.4789 19.28 93.2055 18.9867 92.9922 18.64C92.7922 18.28 92.6922 17.8467 92.6922 17.34C92.6922 16.74 92.8522 16.22 93.1722 15.78C93.5055 15.34 93.9455 15 94.4922 14.76C95.0522 14.52 95.6589 14.4 96.3122 14.4C96.6855 14.4 97.0722 14.4467 97.4722 14.54C97.8855 14.62 98.2855 14.7667 98.6722 14.98C99.0589 15.18 99.3989 15.46 99.6922 15.82C99.8122 15.9533 99.8789 16.12 99.8922 16.32C99.9055 16.52 99.8189 16.7 99.6322 16.86C99.4855 16.9667 99.3189 17.0133 99.1322 17C98.9589 16.9867 98.8122 16.92 98.6922 16.8C98.4122 16.4667 98.0589 16.2133 97.6322 16.04C97.2189 15.8533 96.7589 15.76 96.2522 15.76C95.9322 15.76 95.6189 15.8067 95.3122 15.9C95.0055 15.9933 94.7455 16.1533 94.5322 16.38C94.3322 16.5933 94.2322 16.8933 94.2322 17.28C94.2455 17.64 94.3655 17.9333 94.5922 18.16C94.8189 18.3867 95.1255 18.5733 95.5122 18.72C95.8989 18.8533 96.3255 18.9867 96.7922 19.12C97.2189 19.2267 97.6255 19.3533 98.0122 19.5C98.4122 19.6333 98.7722 19.8133 99.0922 20.04C99.4122 20.2667 99.6655 20.56 99.8522 20.92C100.039 21.2667 100.132 21.7067 100.132 22.24C100.132 22.8533 99.9589 23.3867 99.6122 23.84C99.2655 24.28 98.8055 24.62 98.2322 24.86C97.6722 25.0867 97.0655 25.2 96.4122 25.2C95.6789 25.2 94.9522 25.06 94.2322 24.78C93.5255 24.5 92.9122 24.0267 92.3922 23.36ZM103.985 24.18C103.985 24.4067 103.905 24.6 103.745 24.76C103.598 24.92 103.412 25 103.185 25C102.945 25 102.752 24.92 102.605 24.76C102.458 24.6 102.385 24.4067 102.385 24.18V15.3C102.385 15.0733 102.458 14.8867 102.605 14.74C102.765 14.58 102.958 14.5 103.185 14.5C103.412 14.5 103.598 14.58 103.745 14.74C103.905 14.8867 103.985 15.0733 103.985 15.3V24.18ZM103.185 13.16C102.852 13.16 102.605 13.0933 102.445 12.96C102.285 12.8267 102.205 12.62 102.205 12.34V12.06C102.205 11.78 102.292 11.5733 102.465 11.44C102.638 11.3067 102.885 11.24 103.205 11.24C103.525 11.24 103.765 11.3067 103.925 11.44C104.085 11.5733 104.165 11.78 104.165 12.06V12.34C104.165 12.62 104.078 12.8267 103.905 12.96C103.745 13.0933 103.505 13.16 103.185 13.16ZM111.999 14.4C112.906 14.4 113.619 14.5867 114.139 14.96C114.659 15.3333 115.026 15.8333 115.239 16.46C115.466 17.0867 115.579 17.7867 115.579 18.56V24.18C115.579 24.4067 115.499 24.6 115.339 24.76C115.192 24.92 115.006 25 114.779 25C114.552 25 114.359 24.92 114.199 24.76C114.052 24.6 113.979 24.4067 113.979 24.18V18.6C113.979 18.0933 113.899 17.64 113.739 17.24C113.592 16.8267 113.339 16.5 112.979 16.26C112.632 16.0067 112.152 15.88 111.539 15.88C110.979 15.88 110.466 16.0067 109.999 16.26C109.532 16.5 109.159 16.8267 108.879 17.24C108.599 17.64 108.459 18.0933 108.459 18.6V24.18C108.459 24.4067 108.379 24.6 108.219 24.76C108.072 24.92 107.886 25 107.659 25C107.432 25 107.239 24.92 107.079 24.76C106.932 24.6 106.859 24.4067 106.859 24.18V15.46C106.859 15.2333 106.932 15.0467 107.079 14.9C107.239 14.74 107.432 14.66 107.659 14.66C107.899 14.66 108.092 14.74 108.239 14.9C108.386 15.0467 108.459 15.2333 108.459 15.46V16.88L108.059 17.32C108.126 16.9733 108.279 16.6267 108.519 16.28C108.759 15.92 109.059 15.6 109.419 15.32C109.779 15.04 110.179 14.82 110.619 14.66C111.059 14.4867 111.519 14.4 111.999 14.4Z" fill="#333333"/>
</svg>
