<svg width="140" height="35" viewBox="0 0 140 35" fill="none" xmlns="http://www.w3.org/2000/svg">
<rect width="140" height="35" fill="white"/>
<path d="M18.208 11.8C19.232 11.8 19.9947 12.04 20.496 12.52C20.9973 13 21.248 13.7093 21.248 14.648C21.248 15.1493 21.1253 15.592 20.88 15.976C20.6347 16.3493 20.272 16.6427 19.792 16.856C19.312 17.0587 18.72 17.16 18.016 17.16L18.08 16.44C18.4107 16.44 18.7893 16.488 19.216 16.584C19.6427 16.6693 20.0533 16.8293 20.448 17.064C20.8533 17.288 21.184 17.608 21.44 18.024C21.7067 18.4293 21.84 18.952 21.84 19.592C21.84 20.296 21.7227 20.872 21.488 21.32C21.264 21.768 20.9653 22.1147 20.592 22.36C20.2187 22.6053 19.8187 22.776 19.392 22.872C18.9653 22.9573 18.5547 23 18.16 23H14.176C13.8987 23 13.664 22.9093 13.472 22.728C13.2907 22.536 13.2 22.3013 13.2 22.024V12.776C13.2 12.4987 13.2907 12.2693 13.472 12.088C13.664 11.896 13.8987 11.8 14.176 11.8H18.208ZM17.92 13.688H15.072L15.28 13.432V16.328L15.088 16.184H17.968C18.2773 16.184 18.5547 16.0827 18.8 15.88C19.0453 15.6773 19.168 15.384 19.168 15C19.168 14.5413 19.0507 14.2107 18.816 14.008C18.592 13.7947 18.2933 13.688 17.92 13.688ZM18.048 18.072H15.136L15.28 17.944V21.32L15.12 21.16H18.16C18.6507 21.16 19.04 21.032 19.328 20.776C19.616 20.5093 19.76 20.1147 19.76 19.592C19.76 19.112 19.664 18.7653 19.472 18.552C19.28 18.3387 19.0507 18.2053 18.784 18.152C18.5173 18.0987 18.272 18.072 18.048 18.072ZM30.4524 14.28C30.7297 14.28 30.959 14.3707 31.1404 14.552C31.3217 14.7333 31.4124 14.968 31.4124 15.256V22.024C31.4124 22.3013 31.3217 22.536 31.1404 22.728C30.959 22.9093 30.7297 23 30.4524 23C30.175 23 29.9457 22.9093 29.7644 22.728C29.583 22.536 29.4924 22.3013 29.4924 22.024V21.24L29.8444 21.384C29.8444 21.5227 29.7697 21.6933 29.6204 21.896C29.471 22.088 29.2684 22.28 29.0124 22.472C28.7564 22.664 28.4524 22.8293 28.1004 22.968C27.759 23.096 27.3857 23.16 26.9804 23.16C26.2444 23.16 25.5777 22.9733 24.9804 22.6C24.383 22.216 23.9084 21.6933 23.5564 21.032C23.215 20.36 23.0444 19.592 23.0444 18.728C23.0444 17.8533 23.215 17.0853 23.5564 16.424C23.9084 15.752 24.3777 15.2293 24.9644 14.856C25.551 14.472 26.2017 14.28 26.9164 14.28C27.375 14.28 27.7964 14.3493 28.1804 14.488C28.5644 14.6267 28.895 14.8027 29.1724 15.016C29.4604 15.2293 29.679 15.448 29.8284 15.672C29.9884 15.8853 30.0684 16.0667 30.0684 16.216L29.4924 16.424V15.256C29.4924 14.9787 29.583 14.7493 29.7644 14.568C29.9457 14.376 30.175 14.28 30.4524 14.28ZM27.2204 21.4C27.6897 21.4 28.1004 21.2827 28.4524 21.048C28.8044 20.8133 29.0764 20.4933 29.2684 20.088C29.471 19.6827 29.5724 19.2293 29.5724 18.728C29.5724 18.216 29.471 17.7573 29.2684 17.352C29.0764 16.9467 28.8044 16.6267 28.4524 16.392C28.1004 16.1573 27.6897 16.04 27.2204 16.04C26.7617 16.04 26.3564 16.1573 26.0044 16.392C25.6524 16.6267 25.375 16.9467 25.1724 17.352C24.9804 17.7573 24.8844 18.216 24.8844 18.728C24.8844 19.2293 24.9804 19.6827 25.1724 20.088C25.375 20.4933 25.6524 20.8133 26.0044 21.048C26.3564 21.2827 26.7617 21.4 27.2204 21.4ZM37.9891 14.28C38.8425 14.28 39.4718 14.488 39.8771 14.904C40.2825 15.3093 40.5491 15.8373 40.6771 16.488L40.4051 16.344L40.5331 16.088C40.6611 15.8427 40.8585 15.5813 41.1251 15.304C41.3918 15.016 41.7118 14.776 42.0851 14.584C42.4691 14.3813 42.8958 14.28 43.3651 14.28C44.1331 14.28 44.7145 14.4453 45.1091 14.776C45.5145 15.1067 45.7918 15.5493 45.9411 16.104C46.0905 16.648 46.1651 17.256 46.1651 17.928V22.024C46.1651 22.3013 46.0745 22.536 45.8931 22.728C45.7118 22.9093 45.4825 23 45.2051 23C44.9278 23 44.6985 22.9093 44.5171 22.728C44.3358 22.536 44.2451 22.3013 44.2451 22.024V17.928C44.2451 17.576 44.2025 17.2613 44.1171 16.984C44.0318 16.696 43.8771 16.4667 43.6531 16.296C43.4291 16.1253 43.1091 16.04 42.6931 16.04C42.2878 16.04 41.9411 16.1253 41.6531 16.296C41.3651 16.4667 41.1465 16.696 40.9971 16.984C40.8585 17.2613 40.7891 17.576 40.7891 17.928V22.024C40.7891 22.3013 40.6985 22.536 40.5171 22.728C40.3358 22.9093 40.1065 23 39.8291 23C39.5518 23 39.3225 22.9093 39.1411 22.728C38.9598 22.536 38.8691 22.3013 38.8691 22.024V17.928C38.8691 17.576 38.8265 17.2613 38.7411 16.984C38.6558 16.696 38.5011 16.4667 38.2771 16.296C38.0531 16.1253 37.7331 16.04 37.3171 16.04C36.9118 16.04 36.5651 16.1253 36.2771 16.296C35.9891 16.4667 35.7705 16.696 35.6211 16.984C35.4825 17.2613 35.4131 17.576 35.4131 17.928V22.024C35.4131 22.3013 35.3225 22.536 35.1411 22.728C34.9598 22.9093 34.7305 23 34.4531 23C34.1758 23 33.9465 22.9093 33.7651 22.728C33.5838 22.536 33.4931 22.3013 33.4931 22.024V15.416C33.4931 15.1387 33.5838 14.9093 33.7651 14.728C33.9465 14.536 34.1758 14.44 34.4531 14.44C34.7305 14.44 34.9598 14.536 35.1411 14.728C35.3225 14.9093 35.4131 15.1387 35.4131 15.416V16.104L35.1731 16.056C35.2691 15.8747 35.4025 15.6827 35.5731 15.48C35.7438 15.2667 35.9518 15.0693 36.1971 14.888C36.4425 14.7067 36.7145 14.5627 37.0131 14.456C37.3118 14.3387 37.6371 14.28 37.9891 14.28ZM52.6751 14.28C53.4218 14.28 54.0885 14.472 54.6751 14.856C55.2725 15.2293 55.7418 15.7467 56.0831 16.408C56.4351 17.0693 56.6111 17.8373 56.6111 18.712C56.6111 19.5867 56.4351 20.36 56.0831 21.032C55.7418 21.6933 55.2778 22.216 54.6911 22.6C54.1151 22.9733 53.4645 23.16 52.7391 23.16C52.3125 23.16 51.9125 23.0907 51.5391 22.952C51.1658 22.8133 50.8351 22.6373 50.5471 22.424C50.2698 22.2107 50.0511 21.9973 49.8911 21.784C49.7418 21.56 49.6671 21.3733 49.6671 21.224L50.1631 21.016V22.184C50.1631 22.4613 50.0725 22.696 49.8911 22.888C49.7098 23.0693 49.4805 23.16 49.2031 23.16C48.9258 23.16 48.6965 23.0693 48.5151 22.888C48.3338 22.7067 48.2431 22.472 48.2431 22.184V12.136C48.2431 11.8587 48.3338 11.6293 48.5151 11.448C48.6965 11.256 48.9258 11.16 49.2031 11.16C49.4805 11.16 49.7098 11.256 49.8911 11.448C50.0725 11.6293 50.1631 11.8587 50.1631 12.136V16.2L49.8911 16.056C49.8911 15.9173 49.9658 15.752 50.1151 15.56C50.2645 15.3573 50.4671 15.16 50.7231 14.968C50.9791 14.7653 51.2725 14.6 51.6031 14.472C51.9445 14.344 52.3018 14.28 52.6751 14.28ZM52.4351 16.04C51.9658 16.04 51.5551 16.1573 51.2031 16.392C50.8511 16.6267 50.5738 16.9467 50.3711 17.352C50.1791 17.7467 50.0831 18.2 50.0831 18.712C50.0831 19.2133 50.1791 19.672 50.3711 20.088C50.5738 20.4933 50.8511 20.8133 51.2031 21.048C51.5551 21.2827 51.9658 21.4 52.4351 21.4C52.9045 21.4 53.3098 21.2827 53.6511 21.048C54.0031 20.8133 54.2751 20.4933 54.4671 20.088C54.6698 19.672 54.7711 19.2133 54.7711 18.712C54.7711 18.2 54.6698 17.7467 54.4671 17.352C54.2751 16.9467 54.0031 16.6267 53.6511 16.392C53.3098 16.1573 52.9045 16.04 52.4351 16.04ZM65.1399 14.28C65.4172 14.28 65.6465 14.3707 65.8279 14.552C66.0092 14.7333 66.0999 14.968 66.0999 15.256V22.024C66.0999 22.3013 66.0092 22.536 65.8279 22.728C65.6465 22.9093 65.4172 23 65.1399 23C64.8625 23 64.6332 22.9093 64.4519 22.728C64.2705 22.536 64.1799 22.3013 64.1799 22.024V21.24L64.5319 21.384C64.5319 21.5227 64.4572 21.6933 64.3079 21.896C64.1585 22.088 63.9559 22.28 63.6999 22.472C63.4439 22.664 63.1399 22.8293 62.7879 22.968C62.4465 23.096 62.0732 23.16 61.6679 23.16C60.9319 23.16 60.2652 22.9733 59.6679 22.6C59.0705 22.216 58.5959 21.6933 58.2439 21.032C57.9025 20.36 57.7319 19.592 57.7319 18.728C57.7319 17.8533 57.9025 17.0853 58.2439 16.424C58.5959 15.752 59.0652 15.2293 59.6519 14.856C60.2385 14.472 60.8892 14.28 61.6039 14.28C62.0625 14.28 62.4839 14.3493 62.8679 14.488C63.2519 14.6267 63.5825 14.8027 63.8599 15.016C64.1479 15.2293 64.3665 15.448 64.5159 15.672C64.6759 15.8853 64.7559 16.0667 64.7559 16.216L64.1799 16.424V15.256C64.1799 14.9787 64.2705 14.7493 64.4519 14.568C64.6332 14.376 64.8625 14.28 65.1399 14.28ZM61.9079 21.4C62.3772 21.4 62.7879 21.2827 63.1399 21.048C63.4919 20.8133 63.7639 20.4933 63.9559 20.088C64.1585 19.6827 64.2599 19.2293 64.2599 18.728C64.2599 18.216 64.1585 17.7573 63.9559 17.352C63.7639 16.9467 63.4919 16.6267 63.1399 16.392C62.7879 16.1573 62.3772 16.04 61.9079 16.04C61.4492 16.04 61.0439 16.1573 60.6919 16.392C60.3399 16.6267 60.0625 16.9467 59.8599 17.352C59.6679 17.7573 59.5719 18.216 59.5719 18.728C59.5719 19.2293 59.6679 19.6827 59.8599 20.088C60.0625 20.4933 60.3399 20.8133 60.6919 21.048C61.0439 21.2827 61.4492 21.4 61.9079 21.4ZM72.7566 14.28C73.546 14.28 74.1433 14.4453 74.5486 14.776C74.9646 15.1067 75.2473 15.5493 75.3966 16.104C75.5566 16.648 75.6366 17.256 75.6366 17.928V22.024C75.6366 22.3013 75.546 22.536 75.3646 22.728C75.1833 22.9093 74.954 23 74.6766 23C74.3993 23 74.17 22.9093 73.9886 22.728C73.8073 22.536 73.7166 22.3013 73.7166 22.024V17.928C73.7166 17.576 73.6686 17.2613 73.5726 16.984C73.4873 16.696 73.3273 16.4667 73.0926 16.296C72.858 16.1253 72.522 16.04 72.0846 16.04C71.658 16.04 71.2953 16.1253 70.9966 16.296C70.7086 16.4667 70.4846 16.696 70.3246 16.984C70.1753 17.2613 70.1006 17.576 70.1006 17.928V22.024C70.1006 22.3013 70.01 22.536 69.8286 22.728C69.6473 22.9093 69.418 23 69.1406 23C68.8633 23 68.634 22.9093 68.4526 22.728C68.2713 22.536 68.1806 22.3013 68.1806 22.024V15.416C68.1806 15.1387 68.2713 14.9093 68.4526 14.728C68.634 14.536 68.8633 14.44 69.1406 14.44C69.418 14.44 69.6473 14.536 69.8286 14.728C70.01 14.9093 70.1006 15.1387 70.1006 15.416V16.104L69.8606 16.056C69.9566 15.8747 70.0953 15.6827 70.2766 15.48C70.458 15.2667 70.6713 15.0693 70.9166 14.888C71.162 14.7067 71.4393 14.5627 71.7486 14.456C72.058 14.3387 72.394 14.28 72.7566 14.28ZM81.1839 14.28C81.6319 14.28 82.0425 14.3493 82.4159 14.488C82.7892 14.6267 83.1092 14.8027 83.3759 15.016C83.6532 15.2293 83.8665 15.448 84.0159 15.672C84.1759 15.8853 84.2559 16.0667 84.2559 16.216L83.8399 16.424V15.256C83.8399 14.9787 83.9305 14.7493 84.1119 14.568C84.2932 14.376 84.5225 14.28 84.7999 14.28C85.0772 14.28 85.3065 14.3707 85.4879 14.552C85.6692 14.7333 85.7599 14.968 85.7599 15.256V22.376C85.7599 23.304 85.5572 24.0453 85.1519 24.6C84.7572 25.1653 84.2345 25.5707 83.5839 25.816C82.9332 26.072 82.2345 26.2 81.4879 26.2C81.2745 26.2 80.9972 26.1733 80.6559 26.12C80.3145 26.0667 79.9892 26.0027 79.6799 25.928C79.3705 25.8533 79.1359 25.784 78.9759 25.72C78.6559 25.5813 78.4319 25.4053 78.3039 25.192C78.1865 24.9893 78.1652 24.7707 78.2399 24.536C78.3359 24.2267 78.4905 24.0133 78.7039 23.896C78.9172 23.7893 79.1412 23.7787 79.3759 23.864C79.4825 23.896 79.6585 23.96 79.9039 24.056C80.1492 24.152 80.4159 24.2373 80.7039 24.312C81.0025 24.3973 81.2639 24.44 81.4879 24.44C82.2879 24.44 82.8799 24.28 83.2639 23.96C83.6479 23.64 83.8399 23.1973 83.8399 22.632V21.24L84.0319 21.384C84.0319 21.5227 83.9572 21.6933 83.8079 21.896C83.6692 22.088 83.4719 22.28 83.2159 22.472C82.9705 22.664 82.6772 22.8293 82.3359 22.968C81.9945 23.096 81.6319 23.16 81.2479 23.16C80.4905 23.16 79.8079 22.9733 79.1999 22.6C78.5919 22.216 78.1119 21.6933 77.7599 21.032C77.4079 20.36 77.2319 19.592 77.2319 18.728C77.2319 17.8533 77.4079 17.0853 77.7599 16.424C78.1119 15.752 78.5865 15.2293 79.1839 14.856C79.7812 14.472 80.4479 14.28 81.1839 14.28ZM81.4879 16.04C81.0079 16.04 80.5865 16.1573 80.2239 16.392C79.8612 16.6267 79.5785 16.9467 79.3759 17.352C79.1732 17.7573 79.0719 18.216 79.0719 18.728C79.0719 19.2293 79.1732 19.6827 79.3759 20.088C79.5785 20.4933 79.8612 20.8133 80.2239 21.048C80.5865 21.2827 81.0079 21.4 81.4879 21.4C81.9785 21.4 82.4052 21.2827 82.7679 21.048C83.1305 20.8133 83.4132 20.4933 83.6159 20.088C83.8185 19.6827 83.9199 19.2293 83.9199 18.728C83.9199 18.216 83.8185 17.7573 83.6159 17.352C83.4132 16.9467 83.1305 16.6267 82.7679 16.392C82.4052 16.1573 81.9785 16.04 81.4879 16.04ZM100.321 12.344C100.599 12.4827 100.759 12.7013 100.801 13C100.855 13.2987 100.78 13.5707 100.577 13.816C100.439 14.008 100.257 14.1147 100.033 14.136C99.8199 14.1573 99.6013 14.1147 99.3773 14.008C99.1213 13.8907 98.8493 13.8 98.5613 13.736C98.2839 13.672 97.9906 13.64 97.6813 13.64C97.1053 13.64 96.5879 13.7307 96.1293 13.912C95.6813 14.0933 95.2973 14.3547 94.9773 14.696C94.6573 15.0267 94.4119 15.4213 94.2413 15.88C94.0813 16.3387 94.0013 16.8453 94.0013 17.4C94.0013 18.0507 94.0919 18.616 94.2733 19.096C94.4653 19.576 94.7266 19.976 95.0573 20.296C95.3879 20.616 95.7773 20.856 96.2253 21.016C96.6733 21.1653 97.1586 21.24 97.6813 21.24C97.9693 21.24 98.2573 21.2133 98.5453 21.16C98.8333 21.1067 99.1106 21.0107 99.3773 20.872C99.6013 20.7653 99.8199 20.728 100.033 20.76C100.257 20.792 100.444 20.904 100.593 21.096C100.807 21.3627 100.881 21.64 100.817 21.928C100.764 22.2053 100.604 22.408 100.337 22.536C100.06 22.6747 99.7719 22.792 99.4733 22.888C99.1853 22.9733 98.8919 23.0373 98.5933 23.08C98.2946 23.1333 97.9906 23.16 97.6813 23.16C96.9133 23.16 96.1826 23.0373 95.4893 22.792C94.8066 22.5467 94.1933 22.184 93.6493 21.704C93.1159 21.224 92.6946 20.6267 92.3853 19.912C92.0759 19.1867 91.9213 18.3493 91.9213 17.4C91.9213 16.5787 92.0599 15.8213 92.3372 15.128C92.6253 14.4347 93.0253 13.8373 93.5373 13.336C94.0599 12.824 94.6733 12.4293 95.3773 12.152C96.0813 11.864 96.8493 11.72 97.6813 11.72C98.1506 11.72 98.6093 11.7733 99.0573 11.88C99.5053 11.9867 99.9266 12.1413 100.321 12.344ZM109.281 14.28C109.558 14.28 109.787 14.3707 109.969 14.552C110.15 14.7333 110.241 14.968 110.241 15.256V22.024C110.241 22.3013 110.15 22.536 109.969 22.728C109.787 22.9093 109.558 23 109.281 23C109.003 23 108.774 22.9093 108.593 22.728C108.411 22.536 108.321 22.3013 108.321 22.024V21.24L108.673 21.384C108.673 21.5227 108.598 21.6933 108.449 21.896C108.299 22.088 108.097 22.28 107.841 22.472C107.585 22.664 107.281 22.8293 106.929 22.968C106.587 23.096 106.214 23.16 105.809 23.16C105.073 23.16 104.406 22.9733 103.809 22.6C103.211 22.216 102.737 21.6933 102.385 21.032C102.043 20.36 101.873 19.592 101.873 18.728C101.873 17.8533 102.043 17.0853 102.385 16.424C102.737 15.752 103.206 15.2293 103.793 14.856C104.379 14.472 105.03 14.28 105.745 14.28C106.203 14.28 106.625 14.3493 107.009 14.488C107.393 14.6267 107.723 14.8027 108.001 15.016C108.289 15.2293 108.507 15.448 108.657 15.672C108.817 15.8853 108.897 16.0667 108.897 16.216L108.321 16.424V15.256C108.321 14.9787 108.411 14.7493 108.593 14.568C108.774 14.376 109.003 14.28 109.281 14.28ZM106.049 21.4C106.518 21.4 106.929 21.2827 107.281 21.048C107.633 20.8133 107.905 20.4933 108.097 20.088C108.299 19.6827 108.401 19.2293 108.401 18.728C108.401 18.216 108.299 17.7573 108.097 17.352C107.905 16.9467 107.633 16.6267 107.281 16.392C106.929 16.1573 106.518 16.04 106.049 16.04C105.59 16.04 105.185 16.1573 104.833 16.392C104.481 16.6267 104.203 16.9467 104.001 17.352C103.809 17.7573 103.713 18.216 103.713 18.728C103.713 19.2293 103.809 19.6827 104.001 20.088C104.203 20.4933 104.481 20.8133 104.833 21.048C105.185 21.2827 105.59 21.4 106.049 21.4ZM113.281 23C113.004 23 112.775 22.9093 112.593 22.728C112.412 22.536 112.321 22.3013 112.321 22.024V15.416C112.321 15.1387 112.412 14.9093 112.593 14.728C112.775 14.536 113.004 14.44 113.281 14.44C113.559 14.44 113.788 14.536 113.969 14.728C114.151 14.9093 114.241 15.1387 114.241 15.416V16.92L114.129 15.848C114.247 15.592 114.396 15.368 114.577 15.176C114.769 14.9733 114.983 14.808 115.217 14.68C115.452 14.5413 115.703 14.44 115.969 14.376C116.236 14.312 116.503 14.28 116.769 14.28C117.089 14.28 117.356 14.3707 117.569 14.552C117.793 14.7333 117.905 14.9467 117.905 15.192C117.905 15.544 117.815 15.8 117.633 15.96C117.452 16.1093 117.255 16.184 117.041 16.184C116.839 16.184 116.652 16.1467 116.481 16.072C116.321 15.9973 116.135 15.96 115.921 15.96C115.729 15.96 115.532 16.008 115.329 16.104C115.137 16.1893 114.956 16.328 114.785 16.52C114.625 16.712 114.492 16.952 114.385 17.24C114.289 17.5173 114.241 17.848 114.241 18.232V22.024C114.241 22.3013 114.151 22.536 113.969 22.728C113.788 22.9093 113.559 23 113.281 23ZM122.851 23.16C121.945 23.16 121.155 22.9733 120.483 22.6C119.822 22.216 119.31 21.6987 118.947 21.048C118.595 20.3973 118.419 19.6613 118.419 18.84C118.419 17.88 118.611 17.064 118.995 16.392C119.39 15.7093 119.902 15.1867 120.531 14.824C121.161 14.4613 121.827 14.28 122.531 14.28C123.075 14.28 123.587 14.392 124.067 14.616C124.558 14.84 124.99 15.1493 125.363 15.544C125.737 15.928 126.03 16.376 126.243 16.888C126.467 17.4 126.579 17.944 126.579 18.52C126.569 18.776 126.467 18.984 126.275 19.144C126.083 19.304 125.859 19.384 125.603 19.384H119.491L119.011 17.784H124.883L124.531 18.104V17.672C124.51 17.3627 124.398 17.0853 124.195 16.84C124.003 16.5947 123.758 16.4027 123.459 16.264C123.171 16.1147 122.862 16.04 122.531 16.04C122.211 16.04 121.913 16.0827 121.635 16.168C121.358 16.2533 121.118 16.3973 120.915 16.6C120.713 16.8027 120.553 17.0747 120.435 17.416C120.318 17.7573 120.259 18.1893 120.259 18.712C120.259 19.288 120.377 19.7787 120.611 20.184C120.857 20.5787 121.166 20.8827 121.539 21.096C121.923 21.2987 122.329 21.4 122.755 21.4C123.15 21.4 123.465 21.368 123.699 21.304C123.934 21.24 124.121 21.1653 124.259 21.08C124.409 20.984 124.542 20.904 124.659 20.84C124.851 20.744 125.033 20.696 125.203 20.696C125.438 20.696 125.63 20.776 125.779 20.936C125.939 21.096 126.019 21.2827 126.019 21.496C126.019 21.784 125.87 22.0453 125.571 22.28C125.294 22.5147 124.905 22.7227 124.403 22.904C123.902 23.0747 123.385 23.16 122.851 23.16Z" fill="#3578FA"/>
</svg>
